<svg width="96" height="34" viewBox="0 0 96 34" fill="none" xmlns="http://www.w3.org/2000/svg">
<g id="Group 37">
<g id="Group">
<path id="Fill 1 Copy" d="M52.3652 17.0998C52.3413 16.4572 52.2289 15.8923 52.0282 15.4043C51.8268 14.917 51.5607 14.5121 51.2298 14.1908C50.8985 13.8694 50.5204 13.6319 50.0947 13.4769C49.669 13.3224 49.2312 13.2449 48.7822 13.2449C47.8598 13.2449 47.0615 13.5838 46.3874 14.262C45.7134 14.9402 45.3288 15.8861 45.2345 17.0998H52.3652ZM45.0927 20.0264C45.1636 21.3595 45.5478 22.4181 46.2456 23.2035C46.943 23.9886 47.8598 24.3811 48.9949 24.3811C49.7516 24.3811 50.4195 24.2088 50.9993 23.8638C51.5785 23.5191 51.9511 23.0371 52.1169 22.4181H56.8706C56.3263 24.2267 55.3806 25.6189 54.0325 26.5942C52.6844 27.5701 51.0757 28.0577 49.2079 28.0577C43.3898 28.0577 40.4808 24.8691 40.4808 18.4919C40.4808 17.1356 40.6697 15.9102 41.0484 14.8154C41.4265 13.721 41.9763 12.7808 42.698 11.9955C43.4192 11.2102 44.2999 10.6095 45.341 10.1929C46.3813 9.77687 47.5759 9.56836 48.924 9.56836C51.6202 9.56836 53.6599 10.4374 55.0436 12.174C56.4273 13.9112 57.1189 16.5287 57.1189 20.0264H45.0927Z" fill="black"/>
<path id="Fill 3 Copy" d="M69.3225 18.9914C69.0859 19.2295 68.7429 19.4198 68.2939 19.5625C67.8444 19.7054 67.1941 19.8604 66.3427 20.0264C65.0179 20.2888 64.1077 20.6217 63.6111 21.0262C63.1145 21.4309 62.8661 22.0137 62.8661 22.7747C62.8661 24.084 63.6111 24.7379 65.101 24.7379C65.6919 24.7379 66.2417 24.6372 66.7506 24.4348C67.2587 24.2327 67.6963 23.959 68.0631 23.6139C68.4296 23.2693 68.7249 22.8642 68.9501 22.4C69.1746 21.9361 69.287 21.4426 69.287 20.9188L69.3225 18.9914ZM69.6418 27.5936C69.4999 27.1418 69.4051 26.618 69.3581 26.0231C68.8138 26.6421 68.0926 27.1356 67.1941 27.5043C66.295 27.8728 65.2545 28.0577 64.0722 28.0577C62.0619 28.0577 60.5895 27.6115 59.6555 26.7192C58.7209 25.8268 58.2543 24.6668 58.2543 23.239C58.2543 21.9779 58.455 20.9723 58.8574 20.2228C59.2592 19.4734 59.8151 18.8843 60.5247 18.4559C61.2341 18.0276 62.0797 17.7126 63.0613 17.5102C64.0423 17.3081 65.1127 17.1236 66.2715 16.9567C67.4302 16.7907 68.2107 16.5705 68.6131 16.2966C69.0149 16.0233 69.216 15.577 69.216 14.9581C69.216 14.3868 68.9501 13.9408 68.4179 13.6196C67.8859 13.2982 67.1702 13.1376 66.2715 13.1376C65.2073 13.1376 64.4446 13.3757 63.9835 13.8516C63.5226 14.3278 63.2326 14.9581 63.1145 15.7434H58.8218C58.8451 14.8394 58.9931 14.0066 59.2653 13.2449C59.537 12.4835 59.9748 11.8293 60.5779 11.2817C61.181 10.7345 61.9671 10.3124 62.9368 10.0146C63.9064 9.71724 65.0888 9.56836 66.4845 9.56836C67.8559 9.56836 69.0211 9.72341 69.9788 10.0323C70.9367 10.342 71.705 10.788 72.2848 11.3708C72.864 11.9541 73.2836 12.6798 73.5442 13.548C73.8042 14.417 73.9344 15.3985 73.9344 16.4929V27.5936H69.6418Z" fill="black"/>
<path id="Fill 5 Copy" d="M85.4641 9.56885C84.9899 9.56885 84.528 9.59352 84.0804 9.64082C83.6308 9.68812 83.1873 9.80122 82.7499 9.97806C82.3105 10.157 81.8854 10.414 81.4725 10.7471C81.0577 11.0803 80.6611 11.543 80.283 12.1393V10.0315H75.9563V27.5928H80.5671V18.4564C80.5671 15.6248 81.9753 14.2082 84.7896 14.2082C85.0226 14.2082 85.2536 14.2183 85.4866 14.2409V9.56885H85.4641Z" fill="black"/>
<path id="Fill 7 Copy" d="M96.0005 5.33301V27.5931H91.3878V14.3131H87.5084V9.40851C88.1195 9.37355 88.6552 9.29972 89.1169 9.18868C89.8038 9.02191 90.3659 8.76487 90.803 8.4196C91.2404 8.07619 91.5715 7.64641 91.7965 7.13438C92.0212 6.6242 92.1683 6.02374 92.24 5.33301H96.0005Z" fill="black"/>
</g>
<g id="Group 6 Copy">
<g id="Combined Shape Clipped">
<mask id="mask0_189_153" style="mask-type:alpha" maskUnits="userSpaceOnUse" x="0" y="0" width="30" height="34">
<g id="mask 2">
<path id="Vector" d="M13.3869 0.0341356C12.9321 0.0623077 12.4798 0.131607 12.0378 0.244501C11.6341 0.347525 11.2344 0.467616 10.8319 0.576397C7.08378 1.55399 4.22143 3.73106 2.18886 7.04941C0.352902 10.0459 -0.270665 13.2935 0.10417 16.7575C0.429749 19.7657 1.77458 22.3175 3.68779 24.5906C5.38926 26.6122 7.39444 28.2856 9.59297 29.7389C11.8735 31.2462 14.3019 32.4255 16.9061 33.2423C17.5491 33.4438 18.2097 33.566 18.8694 33.6924C19.0104 33.7194 19.1639 33.7453 19.2612 33.6003C19.3411 33.4814 19.3097 33.3587 19.2565 33.2456C19.1995 33.1245 19.1194 33.0157 19.0341 32.9122C18.5968 32.3819 18.2773 31.7837 18.0084 31.1541C17.6916 30.4119 17.8052 29.5935 18.8502 29.3204C21.5756 28.6079 23.8338 27.0956 25.681 24.9811C28.3392 21.9379 29.5814 18.3577 29.3709 14.3225C29.1477 10.0468 27.4224 6.44442 24.2021 3.62783C21.3907 1.16904 18.1234 0 14.4791 0C14.1186 0 13.7548 0.0115156 13.3869 0.0341356Z" fill="white"/>
</g>
</mask>
<g mask="url(#mask0_189_153)">
<path id="Combined Shape" d="M30.4155 -1.02832V14.0787L26.2048 14.0468C26.1977 14.0468 26.1905 14.0467 26.1833 14.0467L26.1619 14.0466C25.1663 14.0466 24.189 14.3176 23.3331 14.8317L22.3056 15.4492L21.2349 14.2355C21.1486 14.1383 21.0522 14.0499 20.9473 13.9725C20.551 13.6799 20.0654 13.5604 19.58 13.6357C19.0944 13.711 18.6668 13.9719 18.3762 14.3706L17.7046 15.2919L16.7984 11.9626C16.6394 11.3776 16.1758 10.9293 15.5876 10.793C15.1621 10.6951 14.7239 10.7687 14.3536 11.0021C13.9832 11.2353 13.7257 11.5997 13.6278 12.0278L12.8105 15.6043L12.3073 13.3328C12.1624 12.6803 11.6772 12.1555 11.0414 11.9637C10.5703 11.8212 10.073 11.8718 9.64054 12.1062C9.20787 12.3404 8.89169 12.7299 8.75026 13.2035L8.15061 15.2119L7.75268 14.0009C7.50272 13.2415 6.80108 12.7315 6.00624 12.7315H4.90504C4.34074 12.7315 3.88313 13.1917 3.88313 13.7597C3.88313 14.3277 4.34074 14.7879 4.90504 14.7879H5.85847L7.02386 18.3335C7.23641 18.9785 7.93151 19.3306 8.57368 19.1167C8.9528 18.9905 9.24773 18.6849 9.36238 18.3003L10.4826 14.5487L11.6012 19.5971C11.6725 19.9187 11.8638 20.1932 12.1405 20.3701C12.3394 20.4974 12.5654 20.5628 12.7958 20.5628C12.8853 20.5628 12.9758 20.5529 13.0654 20.5327C13.5228 20.4299 13.887 20.0666 13.9932 19.6051L15.2559 14.0807L15.9571 16.6561C16.0722 17.0799 16.3449 17.4332 16.7242 17.6509C17.1035 17.8683 17.5444 17.924 17.9656 17.8085C18.32 17.711 18.6349 17.4928 18.8524 17.1946L19.8747 15.792L20.7773 16.8146C21.4286 17.5518 22.5114 17.72 23.3533 17.2146L24.3807 16.5973C24.9272 16.2689 25.5422 16.0986 26.1891 16.1031L30.4155 16.1351V34.7414H-1.02197V-1.02832H30.4155Z" fill="#00BF69"/>
</g>
</g>
</g>
</g>
</svg>
