<svg width="242" height="76" viewBox="0 0 242 76" fill="none" xmlns="http://www.w3.org/2000/svg">
<g id="google-play-badge 1" clip-path="url(#clip0_119_28)">
<g id="Group">
<path id="Vector" d="M234.438 75.6524H7.5625C3.40312 75.6524 0 72.2637 0 68.122V7.87805C0 3.73628 3.40312 0.347565 7.5625 0.347565H234.438C238.597 0.347565 242 3.73628 242 7.87805V68.122C242 72.2637 238.597 75.6524 234.438 75.6524Z" fill="black"/>
<path id="Vector_2" fill-rule="evenodd" clip-rule="evenodd" d="M18.5281 37.2469V17.4794C18.5281 16.3499 19.4734 15.4085 20.4187 15.4085C21.364 15.4085 21.7421 15.5968 22.3093 15.9733L58.7984 35.9291C59.5546 36.3056 59.9328 36.8704 59.9328 37.4352C59.9328 38 59.5546 38.5648 58.7984 38.9413L22.3093 58.8971C21.9312 59.0854 21.364 59.4619 20.4187 59.4619C19.4734 59.4619 18.5281 58.5206 18.5281 57.391V37.2469Z" fill="url(#paint0_linear_119_28)"/>
<path id="Vector_3" fill-rule="evenodd" clip-rule="evenodd" d="M42.161 37.4352L20.0406 15.4085C20.2297 15.4085 20.2297 15.4085 20.4188 15.4085C21.3641 15.4085 21.7422 15.5968 22.3094 15.9733L49.1563 30.6578L42.161 37.4352Z" fill="url(#paint1_linear_119_28)"/>
<path id="Vector_4" fill-rule="evenodd" clip-rule="evenodd" d="M48.9671 44.0244L42.1609 37.2469L49.1562 30.2812L58.7984 35.5526C59.5546 35.9291 59.9328 36.4939 59.9328 37.0587C59.9328 37.6235 59.5546 38.1883 58.7984 38.5648L48.9671 44.0244Z" fill="url(#paint2_linear_119_28)"/>
<path id="Vector_5" fill-rule="evenodd" clip-rule="evenodd" d="M20.2297 59.0854L42.161 37.247L48.9672 44.0244L22.3094 58.5206C21.7422 58.8971 21.3641 59.0854 20.2297 59.0854C20.4188 59.0854 20.4188 59.0854 20.2297 59.0854Z" fill="url(#paint3_linear_119_28)"/>
<path id="Vector_6" fill-rule="evenodd" clip-rule="evenodd" d="M134.423 64.1684C133.478 63.4154 132.722 62.0976 132.344 61.3445L135.369 60.0267C135.558 60.4032 135.936 60.968 136.314 61.5328C137.07 62.2858 138.205 63.0389 139.339 63.0389C140.473 63.0389 141.797 62.4741 142.553 61.5328C143.12 60.5915 143.498 59.6502 143.498 58.3323V57.2027C141.23 60.0267 136.503 59.6502 133.856 56.638C131.02 53.6258 131.02 48.5427 133.856 45.5305C136.692 42.7066 140.852 42.33 143.309 44.9657V43.6479H146.523V57.7675C146.523 61.3445 145.2 63.4154 143.498 64.7332C142.364 65.6745 140.662 66.0511 139.15 66.0511C137.448 65.8628 135.747 65.298 134.423 64.1684ZM213.641 64.9215L216.855 57.391L211.183 44.4009H214.397L218.367 53.6258L222.337 44.4009H225.552L216.855 64.9215H213.641ZM198.327 57.7675C197.381 56.8262 197.003 55.5084 197.003 54.1905C197.003 53.061 197.381 51.9314 198.137 51.1784C199.461 49.8605 201.352 49.2957 203.431 49.2957C204.755 49.2957 205.889 49.484 206.834 50.0488C206.834 47.7896 204.944 46.8483 203.431 46.8483C202.108 46.8483 200.784 47.6014 200.217 48.9192L197.381 47.7896C197.948 46.4718 199.461 44.0244 203.242 44.0244C205.133 44.0244 207.023 44.5892 208.158 45.907C209.292 47.2248 209.67 48.7309 209.67 50.8018V58.7088H206.456V57.391C206.078 57.9558 205.322 58.3323 204.755 58.7088C203.998 59.0854 203.053 59.2736 202.108 59.2736C200.973 59.0854 199.272 58.7088 198.327 57.7675ZM97.5562 50.9901C97.5562 47.2249 100.392 43.0831 105.497 43.0831C110.412 43.0831 113.437 47.2249 113.437 50.9901C113.437 54.7553 110.602 58.8971 105.497 58.8971C100.392 58.8971 97.5562 54.7553 97.5562 50.9901ZM114.572 50.9901C114.572 47.2249 117.408 43.0831 122.512 43.0831C127.428 43.0831 130.453 47.2249 130.453 50.9901C130.453 54.7553 127.617 58.8971 122.512 58.8971C117.597 58.8971 114.572 54.7553 114.572 50.9901ZM76.1922 55.1319C71.4656 50.4253 71.6547 42.7066 76.3812 37.8117C78.839 35.3643 81.864 34.2348 85.0781 34.2348C88.1031 34.2348 91.1281 35.3643 93.3968 37.6235L91.1281 40.0709C87.725 36.6822 82.2422 36.8704 79.0281 40.2591C75.625 43.8361 75.625 49.2957 79.0281 52.8727C82.4312 56.4497 88.1031 56.638 91.5062 53.061C92.6406 51.9314 93.0187 50.4253 93.2078 48.9192H85.2672V45.5305H96.4219C96.6109 46.2835 96.6109 47.2249 96.6109 48.1662C96.6109 50.9901 95.4765 53.814 93.5859 55.6966C91.5062 57.7675 88.4812 58.8971 85.4562 58.8971C82.0531 58.7088 78.65 57.5793 76.1922 55.1319ZM156.166 56.4497C153.33 53.4375 153.33 48.3544 156.166 45.154C159.002 42.1418 163.728 42.1418 166.375 45.154C167.32 46.0953 167.887 47.4131 168.455 48.7309L158.056 53.061C158.623 54.3788 159.947 55.5084 161.837 55.5084C163.539 55.5084 164.673 54.9436 165.808 53.2492L168.644 55.1319C168.266 55.5084 167.888 55.8849 167.698 56.2614C164.484 59.4619 159.002 59.4619 156.166 56.4497ZM175.828 58.7088V37.8117H182.634C186.605 37.8117 189.819 40.6357 189.819 44.0244C189.819 47.4131 186.983 50.237 183.391 50.237H179.231V58.5206H175.828V58.7088ZM191.709 58.7088V37.8117H194.923V58.7088H191.709ZM148.981 58.3323V34.9878H152.384V58.3323H148.981ZM206.645 52.4962C205.889 51.9314 204.755 51.7431 203.62 51.7431C201.352 51.7431 200.028 52.8727 200.028 54.1905C200.028 55.5084 201.352 56.2614 202.675 56.2614C204.566 56.2614 206.645 54.7553 206.645 52.4962ZM109.845 50.9901C109.845 48.7309 108.333 46.2835 105.497 46.2835C102.661 46.2835 101.148 48.7309 101.148 50.9901C101.148 53.2492 102.661 55.6966 105.497 55.6966C108.144 55.6966 109.845 53.2492 109.845 50.9901ZM126.861 50.9901C126.861 48.7309 125.348 46.2835 122.512 46.2835C119.677 46.2835 118.164 48.7309 118.164 50.9901C118.164 53.2492 119.677 55.6966 122.512 55.6966C125.348 55.6966 126.861 53.2492 126.861 50.9901ZM143.687 52.3079C143.687 52.1197 143.687 51.9314 143.877 51.7431C143.877 51.5549 143.877 51.1784 143.877 50.9901C143.877 50.8018 143.877 50.4253 143.877 50.237V50.0488C143.877 49.8605 143.687 49.484 143.687 49.2957C143.12 47.4131 141.419 46.0953 139.717 46.0953C137.448 46.0953 135.558 48.3544 135.558 50.8018C135.558 53.4375 137.448 55.5084 139.906 55.5084C141.419 55.6966 142.931 54.3788 143.687 52.3079ZM157.489 50.6136L164.484 47.6014C163.728 46.2835 162.594 45.907 161.648 45.907C158.812 46.0953 157.111 49.1075 157.489 50.6136ZM186.416 44.2127C186.416 42.33 184.903 41.0122 182.823 41.0122H179.042V47.6014H183.012C184.903 47.6014 186.416 46.0953 186.416 44.2127Z" fill="white"/>
<path id="Vector_7" fill-rule="evenodd" clip-rule="evenodd" d="M216.098 61.1556H215.909V60.968H216.098H215.909V61.1556H216.098Z" fill="white"/>
<path id="Vector_8" fill-rule="evenodd" clip-rule="evenodd" d="M216.476 61.1556C216.476 60.968 216.476 60.968 216.476 61.1556C216.288 60.968 216.288 60.968 216.476 61.1556C216.288 61.1556 216.288 61.1556 216.476 61.1556ZM216.476 60.968C216.476 61.1556 216.476 61.1556 216.476 60.968C216.288 61.1556 216.476 61.1556 216.476 60.968C216.476 60.968 216.288 60.968 216.476 60.968Z" fill="white"/>
<path id="Vector_9" fill-rule="evenodd" clip-rule="evenodd" d="M216.665 60.968H216.477H216.665V61.1556V60.968Z" fill="white"/>
<path id="Vector_10" d="M73.5453 19.3621C73.5453 15.9733 76.0031 13.9025 79.0281 13.9025C81.1078 13.9025 82.4312 14.8438 83.3766 16.1616L81.8641 17.1029C81.2969 16.3499 80.3516 15.7851 79.0281 15.7851C76.9484 15.7851 75.4359 17.2912 75.4359 19.5503C75.4359 21.8095 76.9484 23.3156 79.0281 23.3156C80.1625 23.3156 81.1078 22.7508 81.4859 22.3743V20.6799H78.4609V18.9855H83.5656V22.939C82.6203 24.0686 81.1078 24.8217 79.2172 24.8217C76.0031 24.8217 73.5453 22.5625 73.5453 19.3621Z" fill="white"/>
<path id="Vector_11" d="M85.8344 24.6334V14.0907H93.0187V15.7851H87.5359V18.4207H92.8297V20.1151H87.5359V23.1273H93.0187V24.8216L85.8344 24.6334Z" fill="white"/>
<path id="Vector_12" d="M98.3124 24.6334V15.7851H95.0984V14.0907H103.417V15.7851H100.203V24.6334H98.3124Z" fill="white"/>
<path id="Vector_13" d="M109.845 24.6334V14.0907H111.736V24.6334H109.845Z" fill="white"/>
<path id="Vector_14" d="M116.841 24.6334V15.7851H113.627V14.0907H121.945V15.7851H118.731V24.6334H116.841Z" fill="white"/>
<path id="Vector_15" d="M127.995 19.3621C127.995 16.1616 130.264 13.9025 133.478 13.9025C136.692 13.9025 138.961 16.1616 138.961 19.3621C138.961 22.5625 136.692 24.8217 133.478 24.8217C130.264 24.8217 127.995 22.3743 127.995 19.3621ZM136.881 19.3621C136.881 17.1029 135.558 15.5968 133.289 15.5968C131.209 15.5968 129.697 17.2912 129.697 19.3621C129.697 21.6212 131.02 23.1273 133.289 23.1273C135.558 23.1273 136.881 21.4329 136.881 19.3621Z" fill="white"/>
<path id="Vector_16" d="M148.414 24.6334L142.931 17.1029V24.6334H141.041V14.0907H142.931L148.414 21.4329V14.0907H150.305V24.6334H148.414Z" fill="white"/>
</g>
</g>
<defs>
<linearGradient id="paint0_linear_119_28" x1="30.7555" y1="12.7232" x2="41.2552" y2="56.0268" gradientUnits="userSpaceOnUse">
<stop stop-color="#006884"/>
<stop offset="1" stop-color="#8AD1D0"/>
</linearGradient>
<linearGradient id="paint1_linear_119_28" x1="17.8488" y1="18.8797" x2="46.6367" y2="34.5088" gradientUnits="userSpaceOnUse">
<stop stop-color="#24BBB6"/>
<stop offset="1" stop-color="#DBE692"/>
</linearGradient>
<linearGradient id="paint2_linear_119_28" x1="51.0362" y1="44.8153" x2="51.0362" y2="29.8514" gradientUnits="userSpaceOnUse">
<stop stop-color="#FCC072"/>
<stop offset="1" stop-color="#F58A5B"/>
</linearGradient>
<linearGradient id="paint3_linear_119_28" x1="23.4338" y1="62.9807" x2="46.1207" y2="39.7938" gradientUnits="userSpaceOnUse">
<stop stop-color="#712B8F"/>
<stop offset="1" stop-color="#EA1D27"/>
</linearGradient>
<clipPath id="clip0_119_28">
<rect width="242" height="76" fill="white"/>
</clipPath>
</defs>
</svg>
